<?xml version="1.0" encoding="UTF-8"?>
<!-- Created with Inkscape (http://www.inkscape.org/) -->
<svg width="53.462mm" height="20.705mm" version="1.1" viewBox="0 0 53.462 20.705" xmlns="http://www.w3.org/2000/svg">
  <g transform="translate(-.083092 -.01008)">
    <path d="m20.722 0.054256c-3.0909-0.43495-5.404 2.4914-8.4859 2.2349-2.3386 0.14071-5.3978-0.41867-6.7108 2.0146-1.7113-0.21819-3.1228 0.80025-4.1863 2.2297-1.3647 1.856-0.87437 4.1165-1.2556 6.2133 0.66666 2.8069 3.9504 3.874 6.5299 3.4148 2.6002-0.83227 3.9657 1.5097 5.9619 2.528 2.6564 0.99105 5.6564 0.86895 8.3242 0.0097 2.0695-0.17841 3.233 2.5894 5.5687 1.9071 1.6948-0.24855 3.611-0.1233 5.066-1.1213 1.1726-1.702 2.9356-2.1768 4.7129-1.2415 2.1792 0.27157 4.5302-0.32189 6.1699-1.8205 2.5893-0.27151 5.3427 1.1427 7.7491-0.47033 1.2249-0.93086 2.7244-2.2883 3.3796-3.4049-1.5474-1.9233-5.5366 0.75672-6.0106-2.5881-1.4581-1.8161-3.926-2.4467-6.1624-2.2789-1.9391-0.85374-3.0858-2.9949-5.4087-3.2063-2.2117-0.53173-4.5524 0.64335-6.703-0.26981-2.2815-1.7844-4.8709-3.2942-7.674-4.0675l-0.4277-0.061305z"/>
  </g>
</svg>
